<?xml version="1.0" encoding="UTF-8" standalone="no"?>
<svg
   xmlns:dc="http://purl.org/dc/elements/1.1/"
   xmlns:cc="http://creativecommons.org/ns#"
   xmlns:rdf="http://www.w3.org/1999/02/22-rdf-syntax-ns#"
   xmlns:svg="http://www.w3.org/2000/svg"
   xmlns="http://www.w3.org/2000/svg"
   version="1.1"
   id="svg5423"
   viewBox="0 0 360.32648 90.583627"
   height="25.564713mm"
   width="101.69214mm">
  <defs
     id="defs5425">
    <clipPath
       id="clipPath200"
       clipPathUnits="userSpaceOnUse">
      <path
         id="path202"
         d="M 0,550 700,550 700,0 0,0 0,550 Z" />
    </clipPath>
  </defs>
  <metadata
     id="metadata5428">
    <rdf:RDF>
      <cc:Work
         rdf:about="">
        <dc:format>image/svg+xml</dc:format>
        <dc:type
           rdf:resource="http://purl.org/dc/dcmitype/StillImage" />
        <dc:title></dc:title>
      </cc:Work>
    </rdf:RDF>
  </metadata>
  <g
     transform="translate(-194.83676,-487.07039)"
     id="layer1">
    <g
       transform="matrix(1.9161276,0,0,-1.9161276,-61.972155,980.91564)"
       style="fill:#3498db;fill-opacity:1"
       id="g196">
      <g
         style="fill:#3498db;fill-opacity:1"
         clip-path="url(#clipPath200)"
         id="g198">
        <g
           style="fill:#3498db;fill-opacity:1"
           transform="translate(257.1416,247.7109)"
           id="g204">
          <path
             id="path206"
             style="fill:#3498db;fill-opacity:1;fill-rule:evenodd;stroke:none"
             d="m 0,0 c 4.213,-1.826 8.369,-3.889 12.731,-5.951 -1.18,-0.178 -2.24,-0.59 -2.889,-1.326 -1.797,-2.006 -1.357,-1.621 -2.417,-3.596 5.07,7.603 16.622,0.353 11.582,-7.898 -2.799,-4.6 -8.576,-6.366 -13.173,-3.45 -2.475,1.563 -3.684,3.657 -4.39,5.983 C 0.116,-9.225 -4.833,-3.387 -10.462,1.15 -9.933,1.004 -9.402,0.857 -8.871,0.738 -5.954,0 -2.978,-0.146 0,0 m -17.83,5.719 c 5.393,-0.975 10.372,-2.623 15.265,-4.629 -3.447,0 -6.777,0.443 -9.843,1.562 -1.68,1.211 -3.359,2.241 -5.304,2.979 -0.03,0.027 -0.089,0.057 -0.118,0.088 m 59.412,-18.035 c -4.421,-0.118 -8.694,0.617 -12.938,1.796 -0.62,2.506 0.767,5.157 2.593,6.159 -3.389,-0.649 -4.008,-3.862 -3.888,-5.776 -4.599,1.385 -9.137,3.242 -13.646,4.949 C 9.842,-3.33 6.159,-1.502 2.475,0.178 6.689,0.529 10.902,1.355 15,1.828 c 6.955,0.854 12.819,1.826 19.773,0.236 0.413,-0.089 0.826,-0.236 1.238,-0.384 1.621,-1.088 2.652,-2.004 3.094,-2.975 0.473,-1.119 -0.353,-3.773 -2.033,-3.832 -1.621,-0.029 -3.005,0.856 -2.681,2.504 0.176,0.828 0.264,1.092 0.943,1.475 -0.354,0.06 -0.737,0 -1.091,-0.147 C 33.83,-1.502 33.624,-2.033 33.477,-2.414 33.33,-2.771 33.3,-3.152 33.3,-3.506 c 0,-2.18 2.74,-3.508 4.568,-2.504 1.561,0.822 2.505,2.918 1.975,4.655 -0.118,0.384 -0.265,0.707 -0.472,1.031 3.389,-3.035 4.862,-8.045 2.211,-11.992 m -12.556,0.736 c 3.95,-1.002 7.898,-1.652 11.937,-1.563 -0.295,-0.324 -0.59,-0.648 -0.944,-0.97 -2.476,-2.153 -8.045,-2.33 -10.786,2.177 -0.059,0.118 -0.147,0.237 -0.207,0.356 M -58.204,0 c 3.005,-0.146 5.982,0 8.9,0.738 0.53,0.119 1.062,0.266 1.591,0.412 -5.658,-4.537 -10.609,-10.375 -11.905,-17.388 -0.737,-2.326 -1.946,-4.42 -4.391,-5.983 -4.627,-2.916 -10.404,-1.15 -13.203,3.45 -5.039,8.251 6.542,15.501 11.612,7.898 -1.062,1.975 -0.649,1.59 -2.417,3.596 -0.649,0.736 -1.739,1.148 -2.888,1.326 4.332,2.062 8.516,4.125 12.701,5.951 m 17.829,5.719 C -40.404,5.688 -40.434,5.658 -40.492,5.631 -42.437,4.893 -44.118,3.863 -45.797,2.652 -48.833,1.533 -52.192,1.09 -55.61,1.09 c 4.862,2.006 9.843,3.654 15.235,4.629 m -59.411,-18.035 c -2.622,3.947 -1.178,8.957 2.24,11.992 -0.207,-0.324 -0.383,-0.647 -0.501,-1.031 -0.53,-1.737 0.412,-3.833 2.004,-4.655 1.798,-1.004 4.539,0.324 4.568,2.504 0,0.354 -0.06,0.735 -0.177,1.092 -0.147,0.381 -0.384,0.912 -0.796,1.119 -0.353,0.147 -0.707,0.207 -1.091,0.147 0.708,-0.383 0.796,-0.647 0.943,-1.475 0.355,-1.648 -1.03,-2.533 -2.681,-2.504 -1.679,0.059 -2.476,2.713 -2.004,3.832 0.412,0.971 1.474,1.887 3.094,2.975 0.384,0.148 0.796,0.295 1.239,0.384 6.954,1.59 12.79,0.618 19.773,-0.236 4.096,-0.473 8.311,-1.299 12.496,-1.65 -3.654,-1.68 -7.338,-3.508 -11.198,-5.366 -4.51,-1.707 -9.048,-3.564 -13.675,-4.949 0.118,1.914 -0.472,5.127 -3.89,5.776 1.827,-1.002 3.213,-3.653 2.595,-6.159 -4.245,-1.179 -8.518,-1.914 -12.939,-1.796 m 12.555,0.736 c -0.06,-0.119 -0.118,-0.238 -0.207,-0.356 -2.711,-4.507 -8.311,-4.33 -10.756,-2.177 -0.354,0.322 -0.678,0.646 -0.973,0.97 4.066,-0.089 8.016,0.561 11.936,1.563 m 67.662,14.676 c 1.267,-2.211 0.532,-5.364 -1.885,-6.041 -1.651,-0.473 -3.242,0.027 -4.127,1.09 0.443,-0.088 0.914,-0.03 1.357,0.175 1.059,0.532 1.561,1.889 0.971,2.918 -1.384,2.477 -4.185,0.533 -4.361,-1.355 -0.059,-0.531 0,-1.092 0.117,-1.619 0.825,-3.184 5.128,-3.893 7.545,-1.977 2.18,1.709 2.918,5.01 1.178,7.457 -0.5,0.707 -1.031,1.328 -1.679,1.828 0.914,-0.326 1.798,-0.679 2.652,-1.092 3.478,-1.621 7.309,-4.126 9.99,-6.777 0.265,-0.266 0.532,-0.531 0.796,-0.826 1.474,-3.213 0.236,-5.422 -0.531,-6.688 -1.148,-1.918 0.709,-2.476 0.709,-2.476 0,0 1.62,-0.885 2.504,2.033 0.59,1.945 -0.029,3.713 -0.855,5.01 3.036,-3.86 5.334,-8.635 5.747,-13.469 -0.088,-2.389 -0.03,-3.508 -2.122,-5.246 -1.708,-1.414 -4.42,-1.236 -5.393,0.707 -0.942,1.947 -0.619,4.068 1.533,4.568 1.061,0.237 1.444,0.293 2.269,-0.322 -0.147,0.469 -0.383,0.885 -0.796,1.205 -0.471,0.387 -1.179,0.356 -1.738,0.326 -0.472,-0.031 -0.944,-0.177 -1.386,-0.382 -2.593,-1.178 -2.681,-5.159 -0.531,-6.778 1.857,-1.416 4.864,-1.416 6.632,0.147 0.736,0.619 1.237,1.472 1.502,2.386 -0.117,-1.029 -0.323,-2.091 -0.648,-3.093 -1.356,-4.45 -4.804,-8.696 -9.223,-10.344 -5.659,-2.152 -15.148,0.353 -17.535,6.453 -1.827,4.713 0.354,11.053 5.982,11.936 -0.294,-0.383 -0.472,-0.883 -0.383,-1.621 0.206,-2.036 2.946,-1.446 2.946,-1.446 0,0 4.422,0.799 4.952,-4.771 0.442,-4.836 -4.421,-5.071 -4.421,-5.071 0,0 -3.388,-0.234 -3.772,2.86 -0.294,2.299 2.122,2.328 2.122,2.328 0,0 1.003,-0.09 1.207,-1.063 -1.413,0.504 -1.443,-0.943 -1.443,-0.943 0.06,-0.736 0.65,-1.295 1.327,-1.264 0.677,0.057 1.15,0.676 1.119,1.412 l 0,0.03 c -0.294,2.211 -2.24,2.326 -2.24,2.326 0,0 -2.858,0.031 -2.534,-2.826 0.472,-3.744 4.421,-3.301 4.421,-3.301 1.179,0 6.425,1.148 5.746,7.898 -0.736,7.161 -7.043,6.336 -7.043,6.336 -1.562,-0.029 -2.828,-0.353 -3.83,-0.826 -4.923,-1.592 -6.897,-7.543 -5.305,-12.197 2.356,-6.928 12.788,-9.432 19.007,-7.137 5.895,2.182 10.02,8.285 10.698,14.412 0.088,1.034 0.119,2.063 0.088,3.096 0.737,-1.502 1.857,-2.891 3.596,-4.039 4.332,-2.918 10.874,-2.004 14.617,1.592 3.27,3.154 3.154,9.017 0.325,12.584 2.415,-0.885 4.803,-1.68 7.22,-2.387 1.944,-6.953 9.076,-6.865 12.435,-4.775 1.237,0.767 2.181,1.769 2.859,2.888 2.859,0.235 5.747,0.826 8.754,1.916 0.912,0.326 1.826,0.739 2.68,1.149 1.709,0.646 5.864,2.537 8.988,6.986 3.272,4.627 1.209,9.9 -1.237,11.315 C 59.676,9.695 57.494,9.4 56.493,7.43 55.461,5.424 56.611,4.217 57.2,3.891 c 0.59,-0.323 1.68,-0.061 2.004,0.646 0.353,0.74 0.383,1.445 -0.501,1.977 -0.913,0.56 -1.944,-0.588 -1.828,-1.18 0,0 -0.706,0.445 0,1.768 0.709,1.328 2.506,2.035 4.716,0.707 0,0 3.301,-2.68 0.383,-6.985 -2.888,-4.301 -6.012,-4.83 -6.012,-4.83 0,0 -1.62,-0.621 -0.707,-2.359 0.943,-1.737 2.8,-1.002 3.36,-0.444 0,0 -0.06,-0.056 -0.147,-0.144 -2.24,-1.416 -4.598,-2.684 -7.221,-3.596 -2.741,-0.943 -5.393,-1.474 -8.015,-1.68 1.296,2.885 1.031,6.395 -0.413,9.342 0.03,-0.058 0.089,-0.117 0.117,-0.177 0.678,-0.707 1.592,-1.09 2.565,-1.297 2.151,-0.412 4.096,1.062 4.538,3.006 C 50.57,0.795 48.83,3.391 46.532,3.006 46.12,2.92 45.737,2.799 45.413,2.596 44.233,1.918 43.792,-0.5 45.825,-0.676 c 0.855,-0.058 1.591,0.647 1.621,1.533 0,0.323 -0.089,0.647 -0.295,0.914 0.973,-0.267 1.473,-1.179 1.679,-2.39 0.267,-1.795 -1.414,-3.006 -3.212,-2.828 -2.386,0.209 -2.71,0.824 -4.097,2.593 0.031,-0.029 0.031,-0.06 0.061,-0.06 -1.179,1.506 -2.712,2.685 -4.54,3.301 -4.567,1.562 -9.488,2.064 -14.233,1.799 1.091,0.412 2.151,1.148 2.888,2.357 1.562,2.625 -0.206,3.244 -0.206,3.244 0,0 -1.651,1.002 -2.3,-1.15 C 22.779,7.248 22.013,4.893 18.771,3.773 13.408,3.035 6.748,1.504 0.235,1.15 c -20.364,8.871 -38.31,8.871 -58.674,0 -6.513,0.354 -13.144,1.885 -18.537,2.623 -3.241,1.12 -3.978,3.475 -4.421,4.864 -0.648,2.152 -2.298,1.15 -2.298,1.15 0,0 -1.768,-0.619 -0.177,-3.244 0.707,-1.209 1.798,-1.945 2.889,-2.357 -4.746,0.265 -9.667,-0.237 -14.265,-1.799 -1.827,-0.616 -3.359,-1.795 -4.509,-3.301 0,0 0.03,0.031 0.03,0.06 -1.356,-1.769 -1.709,-2.384 -4.066,-2.593 -1.827,-0.178 -3.507,1.033 -3.212,2.828 0.176,1.211 0.707,2.123 1.65,2.39 -0.177,-0.267 -0.296,-0.591 -0.265,-0.914 0.029,-0.886 0.737,-1.591 1.62,-1.533 2.004,0.176 1.562,2.594 0.414,3.272 -0.355,0.203 -0.738,0.324 -1.121,0.41 -2.328,0.385 -4.067,-2.211 -3.537,-4.361 0.473,-1.944 2.417,-3.418 4.539,-3.006 0.972,0.207 1.886,0.59 2.564,1.297 0.058,0.06 0.088,0.119 0.147,0.177 -1.444,-2.947 -1.739,-6.457 -0.442,-9.342 -2.593,0.206 -5.275,0.737 -8.016,1.68 -2.593,0.912 -4.951,2.18 -7.192,3.596 -0.117,0.088 -0.176,0.144 -0.176,0.144 0.56,-0.558 2.417,-1.293 3.36,0.444 0.943,1.738 -0.707,2.359 -0.707,2.359 0,0 -3.095,0.529 -6.012,4.83 -2.917,4.305 0.383,6.985 0.383,6.985 2.24,1.328 4.008,0.621 4.714,-0.707 0.738,-1.323 0.032,-1.768 0.032,-1.768 0.116,0.592 -0.944,1.74 -1.828,1.18 -0.913,-0.532 -0.854,-1.237 -0.531,-1.977 0.354,-0.707 1.444,-0.969 2.035,-0.646 0.588,0.326 1.707,1.533 0.707,3.539 -1.033,1.97 -3.213,2.265 -5.541,0.881 -2.417,-1.415 -4.48,-6.688 -1.238,-11.315 3.123,-4.449 7.308,-6.34 8.988,-6.986 0.884,-0.41 1.769,-0.823 2.712,-1.149 2.976,-1.09 5.893,-1.681 8.752,-1.916 0.648,-1.119 1.592,-2.121 2.858,-2.888 3.331,-2.09 10.462,-2.178 12.436,4.775 2.388,0.707 4.804,1.502 7.221,2.387 -2.829,-3.567 -2.976,-9.43 0.325,-12.584 3.713,-3.596 10.255,-4.51 14.617,-1.592 1.708,1.148 2.829,2.537 3.594,4.039 -0.058,-1.033 -0.029,-2.062 0.089,-3.096 0.647,-6.127 4.774,-12.23 10.668,-14.412 6.218,-2.295 16.65,0.209 19.037,7.137 1.562,4.654 -0.383,10.605 -5.333,12.197 -1.002,0.473 -2.269,0.797 -3.831,0.826 0,0 -6.307,0.825 -7.044,-6.336 -0.678,-6.75 4.567,-7.898 5.776,-7.898 0,0 3.92,-0.443 4.392,3.301 0.352,2.857 -2.536,2.826 -2.536,2.826 0,0 -1.943,-0.115 -2.239,-2.326 l 0.029,-0.03 c -0.059,-0.736 0.443,-1.355 1.121,-1.412 0.647,-0.031 1.237,0.528 1.296,1.264 0,0 0,1.447 -1.415,0.943 0.178,0.973 1.18,1.063 1.18,1.063 0,0 2.416,-0.029 2.121,-2.328 -0.383,-3.094 -3.772,-2.86 -3.772,-2.86 0,0 -4.832,0.235 -4.391,5.071 0.531,5.57 4.951,4.771 4.951,4.771 0,0 2.712,-0.59 2.918,1.446 0.087,0.738 -0.089,1.238 -0.384,1.621 5.659,-0.883 7.781,-7.223 5.983,-11.936 -2.387,-6.1 -11.877,-8.605 -17.534,-6.453 -4.391,1.648 -7.84,5.894 -9.224,10.344 -0.325,1.002 -0.531,2.064 -0.65,3.093 0.267,-0.914 0.796,-1.767 1.504,-2.386 1.768,-1.563 4.775,-1.563 6.63,-0.147 2.151,1.619 2.093,5.6 -0.529,6.778 -0.413,0.205 -0.886,0.351 -1.387,0.382 -0.559,0.03 -1.267,0.061 -1.738,-0.326 -0.384,-0.32 -0.648,-0.736 -0.796,-1.205 0.855,0.615 1.209,0.559 2.3,0.322 2.122,-0.5 2.445,-2.621 1.502,-4.568 -0.943,-1.943 -3.683,-2.121 -5.394,-0.707 -2.092,1.738 -2.003,2.857 -2.121,5.246 0.442,4.834 2.741,9.609 5.746,13.469 -0.795,-1.297 -1.443,-3.065 -0.853,-5.01 0.884,-2.918 2.534,-2.033 2.534,-2.033 0,0 1.856,0.558 0.708,2.476 -0.767,1.266 -2.034,3.475 -0.561,6.688 0.266,0.295 0.531,0.56 0.796,0.826 2.711,2.651 6.542,5.156 9.99,6.777 0.855,0.413 1.738,0.766 2.653,1.092 -0.648,-0.5 -1.179,-1.121 -1.65,-1.828 -1.769,-2.447 -1.033,-5.748 1.178,-7.457 2.417,-1.916 6.689,-1.207 7.515,1.977 0.147,0.527 0.205,1.088 0.147,1.619 -0.206,1.888 -3.006,3.832 -4.391,1.355 -0.59,-1.029 -0.089,-2.386 1.001,-2.918 0.413,-0.205 0.886,-0.263 1.327,-0.175 -0.855,-1.063 -2.476,-1.563 -4.126,-1.09 -2.417,0.677 -3.124,3.83 -1.886,6.041 2.918,5.156 16.18,5.156 19.067,0" />
        </g>
      </g>
    </g>
  </g>
</svg>
