<?xml version="1.0" encoding="UTF-8" standalone="no"?>
<svg
   xmlns:dc="http://purl.org/dc/elements/1.1/"
   xmlns:cc="http://creativecommons.org/ns#"
   xmlns:rdf="http://www.w3.org/1999/02/22-rdf-syntax-ns#"
   xmlns:svg="http://www.w3.org/2000/svg"
   xmlns="http://www.w3.org/2000/svg"
   version="1.1"
   id="svg4572"
   viewBox="0 0 341.89629 392.2426"
   height="110.69958mm"
   width="96.49073mm">
  <defs
     id="defs4574">
    <clipPath
       id="clipPath16"
       clipPathUnits="userSpaceOnUse">
      <path
         id="path18"
         d="M 0,550 700,550 700,0 0,0 0,550 Z" />
    </clipPath>
  </defs>
  <metadata
     id="metadata4577">
    <rdf:RDF>
      <cc:Work
         rdf:about="">
        <dc:format>image/svg+xml</dc:format>
        <dc:type
           rdf:resource="http://purl.org/dc/dcmitype/StillImage" />
        <dc:title></dc:title>
      </cc:Work>
    </rdf:RDF>
  </metadata>
  <g
     transform="translate(428.091,-130.52658)"
     id="layer1">
    <g
       transform="matrix(2.2793073,0,0,-2.2793073,-509.07254,1147.1822)"
       style="fill:#3498db;fill-opacity:1"
       id="g12">
      <g
         style="fill:#3498db;fill-opacity:1"
         clip-path="url(#clipPath16)"
         id="g14">
        <g
           style="fill:#3498db;fill-opacity:1"
           transform="translate(48.1704,401.2578)"
           id="g20">
          <path
             id="path22"
             style="fill:#3498db;fill-opacity:1;fill-rule:evenodd;stroke:none"
             d="m 0,0 c 2.373,-0.827 4.676,-1.798 7.122,-2.229 5.215,-0.936 11.005,-0.612 15.681,2.157 2.482,1.51 4.604,3.597 6.186,6.043 4.172,6.509 6.654,14.063 11.474,20.141 3.129,3.957 7.913,6.223 12.912,6.474 1.69,0.109 3.704,-0.071 5.288,-0.755 2.086,-0.827 4.028,-2.014 5.934,-3.237 4.425,-2.877 8.597,-6.15 13.451,-8.236 3.633,-1.583 7.555,-2.41 11.511,-2.805 4.496,-0.432 9.674,-0.18 13.379,2.769 2.374,1.942 3.704,4.747 4.208,7.733 0.324,1.978 0.18,4.028 0.18,6.042 l 0.072,0 c 0.108,-2.05 0.36,-4.064 0.072,-6.079 -0.432,-3.129 -1.762,-6.041 -4.209,-8.092 -2.338,-1.942 -5.502,-2.877 -8.487,-3.093 -3.706,-0.288 -7.446,0.072 -11.042,0.971 -4.819,1.223 -9.388,3.237 -13.74,5.683 -3.093,1.763 -5.682,4.316 -8.776,6.078 -2.41,1.367 -5.035,2.087 -7.805,1.942 -2.698,-0.143 -5.54,-0.827 -7.841,-2.266 -2.805,-1.726 -5,-4.207 -6.725,-7.013 C 35.499,16.833 33.126,10.898 29.602,5.575 27.083,1.763 23.594,-0.863 19.242,-2.229 15.322,-3.488 11.042,-3.381 7.05,-2.589 4.604,-2.086 2.338,-0.935 0,0" />
        </g>
        <g
           style="fill:#3498db;fill-opacity:1"
           transform="translate(39.8267,421.5078)"
           id="g24">
          <path
             id="path26"
             style="fill:#3498db;fill-opacity:1;fill-rule:evenodd;stroke:none"
             d="m 0,0 c 0.179,-1.547 0.215,-3.094 0.683,-4.568 2.157,-7.085 9.927,-10.322 16.76,-10.574 7.481,-0.288 13.991,2.733 15.97,10.431 1.475,5.79 -0.18,13.055 -5.899,15.933 -3.237,1.654 -7.265,2.338 -10.61,1.69 l -0.036,0.072 c 3.452,0.899 7.445,0.395 10.861,-1.258 4.424,-2.051 6.69,-6.619 7.014,-11.33 C 35.499,-10.395 27.694,-16.617 17.407,-16.042 10.395,-15.646 2.194,-12.085 0.324,-4.676 -0.073,-3.166 0.035,-1.583 0,0" />
        </g>
        <g
           style="fill:#3498db;fill-opacity:1"
           transform="translate(77.772,407.4448)"
           id="g28">
          <path
             id="path30"
             style="fill:#3498db;fill-opacity:1;fill-rule:evenodd;stroke:none"
             d="m 0,0 c 0.467,2.374 1.258,4.748 1.15,7.193 -0.215,4.245 -2.84,8.057 -6.69,9.82 -2.481,1.113 -5.934,1.294 -8.307,-0.18 -1.619,-0.972 -2.627,-2.662 -3.922,-3.957 -1.294,-1.367 -2.589,-2.518 -4.315,-3.273 -1.043,-0.432 -2.159,-0.791 -3.309,-0.899 -2.194,-0.18 -4.819,0.359 -6.618,1.69 -0.576,0.432 -0.863,0.899 -1.223,1.475 l 0.108,0.036 c 0.828,-0.971 1.69,-1.655 2.984,-2.051 3.059,-0.898 6.259,-0.683 8.957,1.115 1.726,1.152 2.913,2.735 4.244,4.281 1.043,1.187 2.123,2.409 3.596,3.021 2.518,1.079 5.791,0.755 8.202,-0.396 3.056,-1.474 5.574,-4.28 6.401,-7.625 C 1.797,8.164 1.869,5.898 1.365,3.776 L 0,0 Z" />
        </g>
        <g
           style="fill:#3498db;fill-opacity:1"
           transform="translate(94.748,431.6147)"
           id="g32">
          <path
             id="path34"
             style="fill:#3498db;fill-opacity:1;fill-rule:evenodd;stroke:none"
             d="m 0,0 c 0.826,0.323 1.654,0.647 2.518,0.791 1.942,0.252 4.244,-0.252 5.717,-1.655 1.475,-1.438 2.77,-3.2 3.022,-5.323 0.287,-2.338 -0.827,-4.711 -3.057,-5.61 -1.87,-0.72 -3.704,-0.073 -5.538,0.395 l 0,0.108 c 1.798,-0.215 3.524,-0.647 5.25,0.144 1.798,0.863 2.661,2.841 2.339,4.784 C 9.782,-3.417 7.589,-0.576 4.639,0.107 3.057,0.467 1.547,0.215 0,0" />
        </g>
        <g
           style="fill:#3498db;fill-opacity:1"
           transform="translate(95.1069,431.7583)"
           id="g36">
          <path
             id="path38"
             style="fill:#3498db;fill-opacity:1;fill-rule:evenodd;stroke:none"
             d="m 0,0 c 1.188,0.324 2.338,0.683 3.561,0.791 4.856,0.288 9.567,-2.77 11.222,-7.337 2.553,-6.906 0.216,-14.423 -7.589,-15.646 -10.323,-1.582 -17.66,5.791 -18.451,15.43 -0.611,7.481 3.13,14.999 9.819,18.451 8.812,4.568 16.725,0.791 22.876,-5.431 2.66,-2.697 4.387,-4.136 8.164,-4.172 L 29.638,1.978 C 25.718,1.798 23.919,3.237 21.113,5.971 14.999,11.869 7.589,15.574 -1.078,10.97 -5.719,8.488 -9.1,3.74 -10.034,-1.438 -11.94,-12.049 -4.926,-23.055 7.05,-21.328 17.875,-19.782 17.445,-4.28 8.237,-0.36 6.762,0.252 5.18,0.54 3.596,0.504 2.375,0.504 1.188,0.216 0,0" />
        </g>
        <g
           style="fill:#3498db;fill-opacity:1"
           transform="translate(109.2061,426.1831)"
           id="g40">
          <path
             id="path42"
             style="fill:#3498db;fill-opacity:1;fill-rule:evenodd;stroke:none"
             d="m 0,0 c 1.151,-1.726 2.159,-3.561 3.633,-4.999 2.985,-2.985 6.942,-5.251 11.15,-5.899 3.993,-0.611 7.696,0.503 11.077,2.662 11.042,6.978 9.747,22.048 25.43,23.81 6.725,0.719 13.559,-1.331 20.213,0.252 1.33,0.287 2.662,1.079 3.561,2.122 0.504,0.54 0.791,1.259 1.187,1.906 l 0.072,-0.036 C 75.82,18.739 75.46,17.768 74.525,16.977 69.057,12.409 57.979,15.574 51.362,14.747 38.125,13.093 38.377,3.381 30.968,-5.287 28.594,-8.02 24.495,-10.538 20.969,-11.365 13.597,-13.091 5.36,-9.027 1.367,-2.77 L 0,0 Z" />
        </g>
        <g
           style="fill:#3498db;fill-opacity:1"
           transform="translate(147.6201,434.2764)"
           id="g44">
          <path
             id="path46"
             style="fill:#3498db;fill-opacity:1;fill-rule:evenodd;stroke:none"
             d="m 0,0 c 3.237,3.668 6.977,5.502 11.868,6.258 2.734,0.431 5.647,0.324 8.274,-0.684 4.028,-1.582 5.97,-6.33 5.502,-9.567 -0.359,-2.482 -2.265,-4.028 -5.18,-2.661 -0.503,0.252 -0.97,0.647 -1.295,1.114 -0.214,0.324 -0.322,0.72 -0.431,1.115 l 0.109,0.037 c 0.504,-1.008 1.114,-1.799 2.264,-2.051 6.403,-1.402 3.993,8.992 -1.365,11.006 C 13.02,7.085 5.071,4.711 0,0" />
        </g>
        <g
           style="fill:#3498db;fill-opacity:1"
           transform="translate(88.0229,445.6055)"
           id="g48">
          <path
             id="path50"
             style="fill:#3498db;fill-opacity:1;fill-rule:evenodd;stroke:none"
             d="m 0,0 c -9.028,-2.698 -7.446,-20.321 -6.727,-27.047 -2.481,8.38 -7.409,17.12 -16.94,18.091 8.56,2.806 13.738,-5.215 15.789,-12.229 C -8.669,-13.343 -12.23,-0.899 0,0" />
        </g>
        <g
           style="fill:#3498db;fill-opacity:1"
           transform="translate(45.3652,433.7363)"
           id="g52">
          <path
             id="path54"
             style="fill:#3498db;fill-opacity:1;fill-rule:evenodd;stroke:none"
             d="M 0,0 C 0.971,0.755 1.762,1.979 2.733,2.733 L 6.33,4.964 C 1.043,1.727 1.222,-3.957 3.237,-7.84 -1.727,-7.049 -1.727,-2.266 0,0" />
        </g>
        <g
           style="fill:#3498db;fill-opacity:1"
           transform="translate(44.6826,419.1699)"
           id="g56">
          <path
             id="path58"
             style="fill:#3498db;fill-opacity:1;fill-rule:evenodd;stroke:none"
             d="m 0,0 c 1.582,-9.387 9.854,-5.899 10.862,-3.417 2.193,-1.043 3.524,-0.036 4.1,0.648 0.934,1.079 0.539,3.129 1.545,5.287 C 16.113,2.086 15.716,1.618 15.321,1.187 13.991,-0.144 12.731,-1.332 11.005,-2.05 9.962,-2.482 8.846,-2.842 7.696,-2.949 5.502,-3.166 2.877,-2.59 1.078,-1.259 0.574,-0.899 0.287,-0.468 0,0" />
        </g>
        <g
           style="fill:#3498db;fill-opacity:1"
           transform="translate(57.8091,429.4204)"
           id="g60">
          <path
             id="path62"
             style="fill:#3498db;fill-opacity:1;fill-rule:evenodd;stroke:none"
             d="M 0,0 C 1.44,0.144 2.483,1.438 2.338,2.877 2.159,4.28 0.864,5.359 -0.539,5.179 -1.978,5.035 -3.021,3.74 -2.877,2.302 -2.733,0.899 -1.438,-0.18 0,0" />
        </g>
        <g
           style="fill:#3498db;fill-opacity:1"
           transform="translate(61.2266,421.8667)"
           id="g64">
          <path
             id="path66"
             style="fill:#3498db;fill-opacity:1;fill-rule:evenodd;stroke:none"
             d="M 0,0 C -2.229,-4.603 0.756,-10.717 9.747,-7.193 2.158,-7.733 -2.014,2.051 6.979,3.525 5.432,3.561 3.885,3.273 2.625,2.482 1.582,1.835 0.791,0.899 0,0" />
        </g>
        <g
           style="fill:#3498db;fill-opacity:1"
           transform="translate(123.9175,433.7363)"
           id="g68">
          <path
             id="path70"
             style="fill:#3498db;fill-opacity:1;fill-rule:evenodd;stroke:none"
             d="M 0,0 C -6.223,-0.827 -7.229,-0.324 -7.121,1.547 -8.919,1.187 -9.747,2.194 -9.962,2.841 -10.107,3.309 -10.323,4.676 -9.1,5.323 -8.632,4.891 -8.164,4.46 -7.698,3.993 -5.071,1.475 -3.344,0.072 0,0 m 0.791,0.108 z" />
        </g>
        <g
           style="fill:#3498db;fill-opacity:1"
           transform="translate(67.1255,399.2798)"
           id="g72">
          <path
             id="path74"
             style="fill:#3498db;fill-opacity:1;fill-rule:evenodd;stroke:none"
             d="m 0,0 c -1.151,-0.036 -4.1,-0.899 -5.251,-0.935 l -3.92,0.251 c 3.416,-0.251 6.725,1.044 8.38,3.202 1.078,1.367 2.049,3.021 1.33,5.215 C 3.848,4.424 2.517,0.756 0,0" />
        </g>
        <g
           style="fill:#3498db;fill-opacity:1"
           transform="translate(76.6924,406.1855)"
           id="g76">
          <path
             id="path78"
             style="fill:#3498db;fill-opacity:1;fill-rule:evenodd;stroke:none"
             d="m 0,0 c -0.828,-0.755 -1.475,-1.942 -2.303,-2.733 l -3.164,-2.338 c 4.639,3.417 4.244,8.344 2.734,11.15 C 1.008,5.431 1.438,2.23 0,0" />
        </g>
        <g
           style="fill:#3498db;fill-opacity:1"
           transform="translate(113.8818,440.1743)"
           id="g80">
          <path
             id="path82"
             style="fill:#3498db;fill-opacity:1;fill-rule:evenodd;stroke:none"
             d="M 0,0 C 1.403,-3.165 -4.604,-6.869 -7.661,-2.086 -4.244,-4.963 1.116,-1.726 -2.66,2.05 -2.121,1.69 -0.035,0.612 0,0" />
        </g>
        <g
           style="fill:#3498db;fill-opacity:1"
           transform="translate(86.4395,435.9302)"
           id="g84">
          <path
             id="path86"
             style="fill:#3498db;fill-opacity:1;fill-rule:evenodd;stroke:none"
             d="m 0,0 c -0.252,-1.223 -1.654,-4.208 -1.871,-5.431 l -0.358,-4.244 c 0.287,3.705 2.194,7.013 4.782,8.452 1.619,0.935 3.561,1.691 5.756,0.539 C 5.358,3.417 1.223,2.59 0,0" />
        </g>
        <g
           style="fill:#3498db;fill-opacity:1"
           transform="translate(99.604,444.9937)"
           id="g88">
          <path
             id="path90"
             style="fill:#3498db;fill-opacity:1;fill-rule:evenodd;stroke:none"
             d="m 0,0 c -0.828,-0.323 -3.202,-0.647 -4.03,-1.007 l -2.661,-1.474 c 2.337,1.294 5.072,1.438 6.978,0.468 1.187,-0.612 2.41,-1.475 2.625,-3.274 C 4.207,-1.87 2.049,0.288 0,0" />
        </g>
        <g
           style="fill:#3498db;fill-opacity:1"
           transform="translate(124.6367,410.6094)"
           id="g92">
          <path
             id="path94"
             style="fill:#3498db;fill-opacity:1;fill-rule:evenodd;stroke:none"
             d="m 0,0 c -5.358,-1.978 -11.042,7.158 -13.2,10.718 1.906,-4.999 2.697,-11.077 -1.583,-15.034 5.179,1.762 4.749,7.589 3.202,11.725 C -9.1,3.309 -6.258,-4.028 0,0" />
        </g>
        <g
           style="fill:#3498db;fill-opacity:1"
           transform="translate(78.9585,429.708)"
           id="g96">
          <path
             id="path98"
             style="fill:#3498db;fill-opacity:1;fill-rule:evenodd;stroke:none"
             d="m 0,0 c -0.936,2.841 -1.907,5.036 -4.317,6.905 -6.329,4.892 -14.89,5.792 -22.299,2.159 -8.524,-4.136 -13.092,-13.847 -11.797,-23.091 0.611,-4.46 2.589,-8.74 5.863,-11.905 16.4,-15.897 34.24,-1.151 43.268,13.271 5.072,8.093 7.014,17.265 15.466,22.696 5.936,3.848 13.236,5.323 20.142,3.777 7.517,-1.655 12.911,-8.524 13.667,-15.79 l 0.36,-3.129 0,-0.036 c 0.324,-2.949 -1.619,-4.1 -3.741,-4.137 -3.021,-0.035 -4.1,2.302 -3.596,3.885 0.18,-2.086 1.979,-3.597 4.1,-3.201 1.366,0.216 2.553,1.33 2.338,3.453 -0.144,1.331 -1.726,2.625 -3.203,2.949 -2.408,0.504 -2.912,3.093 -1.113,4.82 1.295,1.222 1.043,2.841 0.322,4.279 -2.337,2.987 -5.538,5.252 -9.351,6.043 -6.653,1.366 -13.594,-0.144 -19.277,-3.92 -8.13,-5.395 -9.928,-14.53 -14.784,-22.444 -9.243,-15.07 -24.672,-28.341 -42.764,-16.041 -6.151,4.208 -9.387,11.51 -9.243,18.811 0.108,6.006 2.446,12.013 6.726,16.293 8.164,8.093 24.385,9.388 31.543,-0.828 C -0.612,3.272 -0.289,1.762 0,0" />
        </g>
        <g
           style="fill:#3498db;fill-opacity:1"
           transform="translate(128.7002,441.7573)"
           id="g100">
          <path
             id="path102"
             style="fill:#3498db;fill-opacity:1;fill-rule:evenodd;stroke:none"
             d="m 0,0 -3.955,1.762 c 2.877,-1.978 4.819,-4.604 4.89,-6.869 0.073,-1.476 -0.539,-2.734 -2.157,-3.849 2.195,0.432 3.488,2.05 3.633,3.776 C 2.59,-3.273 1.403,-1.188 0,0" />
        </g>
        <g
           style="fill:#3498db;fill-opacity:1"
           transform="translate(169.0918,427.8018)"
           id="g104">
          <path
             id="path106"
             style="fill:#3498db;fill-opacity:1;fill-rule:evenodd;stroke:none"
             d="M 0,0 C 1.438,0.144 2.481,1.439 2.338,2.877 2.194,4.316 0.899,5.359 -0.539,5.179 -1.942,5.035 -2.985,3.74 -2.842,2.302 -2.698,0.899 -1.403,-0.144 0,0" />
        </g>
        <g
           style="fill:#3498db;fill-opacity:1"
           transform="translate(155.5332,435.2832)"
           id="g108">
          <path
             id="path110"
             style="fill:#3498db;fill-opacity:1;fill-rule:evenodd;stroke:none"
             d="m 0,0 c 1.51,-4.389 3.381,-5.683 3.416,-7.589 0.035,-2.878 -2.014,-3.166 -3.489,-2.986 -0.216,-4.891 -1.799,-4.064 -6.041,-4.495 0.609,0.143 1.15,0.575 1.617,0.935 1.26,1.115 1.438,1.403 2.555,2.913 0.717,0.935 0.969,2.122 1.401,3.237 0.289,0.791 0.433,1.475 0.541,2.302 0.252,1.834 0.035,3.92 0,5.683" />
        </g>
        <g
           style="fill:#3498db;fill-opacity:1"
           transform="translate(180.8164,429.1685)"
           id="g112">
          <path
             id="path114"
             style="fill:#3498db;fill-opacity:1;fill-rule:evenodd;stroke:none"
             d="M 0,0 C 1.475,4.46 -6.223,8.813 -9.208,10.466 -5.035,9.1 -0.035,8.632 3.094,12.265 1.799,7.949 -2.985,8.092 -6.437,9.244 -3.021,7.373 3.129,5.251 0,0" />
        </g>
        <g
           style="fill:#3498db;fill-opacity:1"
           transform="translate(174.667,427.0464)"
           id="g116">
          <path
             id="path118"
             style="fill:#3498db;fill-opacity:1;fill-rule:evenodd;stroke:none"
             d="M 0,0 C 3.237,2.662 -0.576,9.28 -3.059,11.509 0.396,8.74 5.719,2.95 0,0" />
        </g>
        <g
           style="fill:#3498db;fill-opacity:1"
           transform="translate(98.9551,419.9609)"
           id="g120">
          <path
             id="path122"
             style="fill:#3498db;fill-opacity:1;fill-rule:evenodd;stroke:none"
             d="M 0,0 C 1.403,0.145 2.483,1.438 2.303,2.878 2.159,4.316 0.864,5.359 -0.574,5.179 -1.978,5.036 -3.056,3.741 -2.877,2.302 -2.732,0.899 -1.437,-0.18 0,0" />
        </g>
        <g
           style="fill:#3498db;fill-opacity:1"
           transform="translate(47.6665,401.438)"
           id="g124">
          <path
             id="path126"
             style="fill:#3498db;fill-opacity:1;fill-rule:evenodd;stroke:none"
             d="m 0,0 c 6.979,-5.395 14.136,-10.502 20.07,-17.013 2.805,-3.092 4.784,-6.905 6.438,-10.718 1.727,-3.992 3.129,-8.2 3.526,-12.516 0.646,-6.402 0.215,-12.876 -0.971,-19.242 -0.576,-2.913 -1.943,-5.647 -3.49,-8.2 -2.842,-4.712 -7.157,-8.669 -12.697,-9.784 -4.496,-0.863 -9.53,0.324 -12.624,3.813 -2.123,2.337 -3.057,5.682 -2.266,8.776 0.719,2.697 2.411,5.251 4.856,6.618 2.338,1.294 5.106,0.898 7.085,-0.792 1.187,-1.043 1.799,-2.301 2.447,-3.74 l -0.109,-0.036 c -0.682,1.331 -1.33,2.589 -2.553,3.561 -1.906,1.546 -4.532,1.834 -6.618,0.611 -2.842,-1.654 -4.641,-4.964 -4.748,-8.201 -0.143,-3.704 2.266,-7.049 5.467,-8.668 3.453,-1.762 7.661,-1.798 11.257,-0.395 4.209,1.619 7.409,4.963 9.676,8.776 1.438,2.481 2.733,5.143 3.272,7.948 1.188,6.223 1.692,12.553 1.116,18.847 -0.397,4.245 -1.69,8.38 -3.345,12.3 -1.619,3.778 -3.525,7.554 -6.223,10.611 C 13.775,-10.862 6.763,-5.575 0,0" />
        </g>
        <g
           style="fill:#3498db;fill-opacity:1"
           transform="translate(54.2847,397.6978)"
           id="g128">
          <path
             id="path130"
             style="fill:#3498db;fill-opacity:1;fill-rule:evenodd;stroke:none"
             d="m 0,0 10.575,-7.409 c 6.581,-5.071 14.998,-9.964 18.019,-18.308 1.907,-5.251 1.043,-11.15 -2.553,-15.429 -3.094,-3.741 -7.805,-5.899 -12.589,-6.366 -4.064,-0.397 -8.416,0.215 -12.192,1.798 -3.094,1.294 -5.72,3.38 -7.446,6.257 -1.295,2.195 -2.086,4.676 -2.373,7.194 -0.217,1.727 -0.108,3.813 0.611,5.431 0.826,1.943 2.049,3.633 3.272,5.324 1.584,2.23 3.705,4.28 3.957,7.157 0.539,5.754 -5.215,10.862 -10.825,10.503 -1.836,-0.145 -3.598,-0.864 -4.928,-2.194 -0.756,-0.792 -1.26,-1.799 -1.871,-2.698 l -0.072,0.036 c 0.54,0.971 1.007,2.014 1.763,2.841 2.014,2.158 5.071,2.806 7.911,2.194 3.705,-0.828 7.303,-3.705 8.345,-7.481 0.541,-1.978 0.576,-4.172 -0.43,-6.042 -0.9,-1.691 -2.159,-3.202 -3.274,-4.785 -1.151,-1.617 -2.301,-3.272 -3.057,-5.106 -0.683,-1.511 -0.756,-3.489 -0.541,-5.072 0.506,-3.92 2.231,-7.733 5.288,-10.251 2.59,-2.122 5.934,-3.272 9.208,-3.776 5.035,-0.756 10.178,-0.36 14.639,2.302 4.387,2.626 7.3,7.373 7.337,12.553 0,2.805 -0.791,5.61 -2.123,8.056 -3.632,6.689 -10.681,10.97 -16.328,15.502 L 0,0 Z" />
        </g>
        <g
           style="fill:#3498db;fill-opacity:1"
           transform="translate(66.0825,350.6528)"
           id="g132">
          <path
             id="path134"
             style="fill:#3498db;fill-opacity:1;fill-rule:evenodd;stroke:none"
             d="m 0,0 c -1.619,0.072 -3.201,0.072 -4.748,0.431 -4.892,1.223 -9.388,5.54 -9.855,10.683 -0.252,2.481 0.395,5.107 2.229,6.833 2.123,2.014 5,2.302 7.842,2.087 2.842,-0.216 5.61,-1.331 8.489,-1.511 2.913,-0.18 5.862,0.072 8.63,1.043 5.215,1.798 10.144,7.193 8.956,13.056 -0.61,2.842 -2.913,5.143 -5.753,5.683 -0.72,0.108 -1.404,0.108 -2.086,0.036 -0.721,-0.108 -1.404,-0.396 -2.123,-0.612 l -0.037,0.108 c 1.08,0.468 1.979,0.863 3.203,0.863 3.055,0.072 5.897,-1.942 7.013,-4.747 1.115,-2.806 0.574,-6.115 -0.863,-8.668 -2.519,-4.389 -7.482,-7.086 -12.373,-7.769 -3.022,-0.432 -6.079,0.359 -9.1,0.755 -2.625,0.396 -5.215,0.792 -7.876,0.683 -0.864,-0.036 -1.943,-0.611 -2.662,-1.079 -2.122,-1.474 -2.95,-4.172 -2.77,-6.689 0.287,-3.489 2.662,-6.834 5.575,-8.705 1.115,-0.755 2.373,-1.294 3.668,-1.69 C -3.166,0.359 -1.582,0.215 0,0" />
        </g>
        <g
           style="fill:#3498db;fill-opacity:1"
           transform="translate(50.041,342.5601)"
           id="g136">
          <path
             id="path138"
             style="fill:#3498db;fill-opacity:1;fill-rule:evenodd;stroke:none"
             d="m 0,0 c 2.266,1.331 4.46,2.841 6.942,3.633 3.74,1.186 7.84,1.043 11.222,-1.079 2.373,-1.475 4.172,-3.777 5.394,-6.294 2.446,-4.964 2.913,-11.078 2.05,-16.473 -0.647,-4.281 -2.374,-8.309 -4.065,-12.301 l -6.257,-14.783 c -1.33,-4.207 -2.518,-8.488 -1.152,-12.767 1.188,-3.705 4.317,-7.698 8.454,-8.13 1.51,-0.144 2.984,0.181 4.279,0.972 1.079,0.647 1.907,1.618 2.805,2.482 l 0.073,-0.073 c -0.864,-0.935 -1.655,-1.978 -2.735,-2.661 -2.733,-1.799 -6.077,-1.33 -8.667,0.468 -1.798,1.295 -3.238,3.129 -4.172,5.107 -3.561,7.409 0.576,15.933 3.272,22.875 1.547,3.992 4.029,7.625 5.324,11.725 1.438,4.604 2.122,9.388 2.231,14.207 0.071,2.123 -0.469,4.244 -1.08,6.295 -1.08,3.416 -3.022,6.833 -6.114,8.811 C 14.566,4.1 10.682,4.28 7.05,3.237 4.567,2.518 2.338,1.151 0,0" />
        </g>
        <g
           style="fill:#3498db;fill-opacity:1"
           transform="translate(51.9834,343.7832)"
           id="g140">
          <path
             id="path142"
             style="fill:#3498db;fill-opacity:1;fill-rule:evenodd;stroke:none"
             d="m 0,0 c 2.733,1.475 5.323,3.237 8.344,3.956 4.747,1.151 9.712,0 13.416,-3.237 1.798,-1.582 3.236,-3.561 4.316,-5.719 1.834,-3.596 3.165,-7.589 3.057,-11.689 -0.144,-5.215 -3.273,-9.387 -6.87,-12.876 -4.316,-4.209 -9.676,-7.877 -12.264,-13.524 -1.619,-3.488 -2.374,-7.444 -1.08,-11.149 1.295,-3.777 4.676,-7.554 8.885,-7.877 1.547,-0.108 3.057,0.252 4.387,1.043 1.08,0.648 1.907,1.618 2.842,2.482 l 0.071,-0.037 c -0.899,-0.97 -1.69,-2.013 -2.77,-2.697 -2.805,-1.834 -6.221,-1.475 -8.954,0.288 -2.338,1.511 -4.137,3.92 -5.108,6.546 -1.762,4.855 -0.287,10.395 2.518,14.567 2.914,4.315 7.085,7.481 10.753,11.113 2.627,2.625 5.252,5.576 6.186,9.28 0.828,3.308 0.433,6.689 -0.647,9.926 C 25.572,-5 23.055,-0.324 18.63,2.122 15.501,3.848 11.905,4.28 8.416,3.524 5.43,2.877 2.769,1.294 0,0" />
        </g>
        <g
           style="fill:#3498db;fill-opacity:1"
           transform="translate(68.0234,350.7603)"
           id="g144">
          <path
             id="path146"
             style="fill:#3498db;fill-opacity:1;fill-rule:evenodd;stroke:none"
             d="m 0,0 c -1.978,0.036 -3.992,-0.107 -5.862,0.54 -3.236,1.079 -6.473,3.812 -7.121,7.337 -0.252,1.439 -0.037,3.093 0.648,4.532 2.049,4.28 8.595,4.64 11.724,1.259 1.043,-1.151 1.367,-2.374 1.152,-3.921 -2.123,3.525 -7.805,4.388 -9.963,1.691 C -11.436,8.92 -10.321,6.294 -8.846,4.604 -6.797,2.23 -2.805,0.828 0,0" />
        </g>
        <g
           style="fill:#3498db;fill-opacity:1"
           transform="translate(61.9458,350.9404)"
           id="g148">
          <path
             id="path150"
             style="fill:#3498db;fill-opacity:1;fill-rule:evenodd;stroke:none"
             d="m 0,0 c -2.518,0.791 -5.071,1.618 -7.481,2.733 -5.719,2.626 -9.243,13.992 -4.604,18.883 4.424,4.676 12.013,4.209 10.323,12.625 l 0.072,0.036 c 0.682,-2.123 1.798,-4.928 0.719,-7.194 -1.906,-4.028 -7.625,-4.891 -10.034,-9.819 -2.699,-5.467 1.221,-13.56 7.048,-15.754 L 0,0 Z" />
        </g>
        <g
           style="fill:#3498db;fill-opacity:1"
           transform="translate(67.8799,328.0654)"
           id="g152">
          <path
             id="path154"
             style="fill:#3498db;fill-opacity:1;fill-rule:evenodd;stroke:none"
             d="m 0,0 c -1.33,-0.899 -2.588,-1.942 -4.1,-2.517 -4.496,-1.691 -10.754,-0.54 -13.415,3.775 -1.655,2.698 -1.907,6.799 0.502,9.173 1.512,1.474 3.885,2.481 5.827,1.258 0.72,-0.432 1.08,-1.006 1.476,-1.69 L -9.819,9.927 c -0.827,0.971 -1.906,1.978 -3.309,1.762 -1.834,-0.251 -3.344,-1.33 -4.172,-2.985 -1.079,-2.194 -0.575,-4.891 0.684,-6.906 1.762,-2.769 5.143,-4.208 8.344,-4.315 1.33,-0.036 2.698,0.143 3.992,0.539 C -2.769,-1.547 -1.402,-0.683 0,0" />
        </g>
        <g
           style="fill:#3498db;fill-opacity:1"
           transform="translate(52.4141,343.8193)"
           id="g156">
          <path
             id="path158"
             style="fill:#3498db;fill-opacity:1;fill-rule:evenodd;stroke:none"
             d="m 0,0 c 0.936,0.431 1.835,0.97 2.842,1.187 2.59,0.539 5.467,0.395 7.985,-0.432 3.237,-1.079 5.61,-3.381 7.122,-6.438 2.338,-4.712 2.373,-10.538 0.322,-15.358 -0.863,-2.05 -2.373,-3.776 -3.453,-5.719 -2.373,-4.28 -4.567,-9.171 -3.344,-14.171 0.791,-3.309 4.135,-6.114 7.625,-5.755 1.079,0.108 2.159,0.504 3.057,1.116 0.756,0.503 1.366,1.185 2.014,1.798 l 0.073,-0.072 c -0.612,-0.683 -1.188,-1.402 -1.907,-1.978 -1.834,-1.366 -4.244,-1.727 -6.401,-0.936 -2.77,1.008 -5.145,3.813 -5.432,6.799 -0.324,3.344 0.108,6.653 1.475,9.71 l 3.813,6.907 c 1.006,1.798 2.013,3.632 2.517,5.646 1.366,5.647 0,12.049 -4.352,16.077 C 12.554,-0.324 10.54,0.323 8.704,0.719 6.798,1.115 4.819,1.15 2.914,0.863 1.907,0.719 0.971,0.323 0,0" />
        </g>
        <g
           style="fill:#3498db;fill-opacity:1"
           transform="translate(38.8906,384.5698)"
           id="g160">
          <path
             id="path162"
             style="fill:#3498db;fill-opacity:1;fill-rule:evenodd;stroke:none"
             d="M 0,0 C 1.69,0.179 2.914,1.69 2.733,3.381 2.555,5.035 1.043,6.258 -0.647,6.078 -2.301,5.898 -3.524,4.388 -3.344,2.733 -3.164,1.043 -1.654,-0.18 0,0" />
        </g>
        <g
           style="fill:#3498db;fill-opacity:1"
           transform="translate(79.8931,383.1304)"
           id="g164">
          <path
             id="path166"
             style="fill:#3498db;fill-opacity:1;fill-rule:evenodd;stroke:none"
             d="M 0,0 C 1.655,0.18 2.877,1.69 2.698,3.345 2.518,5.036 1.008,6.223 -0.647,6.079 -2.301,5.899 -3.524,4.388 -3.344,2.698 -3.164,1.044 -1.69,-0.179 0,0" />
        </g>
        <g
           style="fill:#3498db;fill-opacity:1"
           transform="translate(55.7949,333.5322)"
           id="g168">
          <path
             id="path170"
             style="fill:#3498db;fill-opacity:1;fill-rule:evenodd;stroke:none"
             d="M 0,0 C 1.69,0.18 2.914,1.69 2.733,3.345 2.555,5 1.043,6.223 -0.611,6.042 -2.301,5.898 -3.524,4.388 -3.344,2.698 -3.164,1.043 -1.654,-0.18 0,0" />
        </g>
        <g
           style="fill:#3498db;fill-opacity:1"
           transform="translate(60.0752,332.0581)"
           id="g172">
          <path
             id="path174"
             style="fill:#3498db;fill-opacity:1;fill-rule:evenodd;stroke:none"
             d="M 0,0 C 3.633,1.69 0.899,8.416 -0.18,11.005 1.799,7.984 4.784,5.143 8.704,5.682 5.647,3.776 2.626,6.33 0.971,8.812 2.231,5.826 5.143,1.367 0,0" />
        </g>
        <g
           style="fill:#3498db;fill-opacity:1"
           transform="translate(43.1709,320.0806)"
           id="g176">
          <path
             id="path178"
             style="fill:#3498db;fill-opacity:1;fill-rule:evenodd;stroke:none"
             d="M 0,0 C 5.035,-6.295 18.56,0.612 23.703,3.346 17.804,-1.331 12.409,-8.056 14.711,-15.969 9.747,-10.035 14.459,-3.345 19.386,0.54 13.417,-2.625 4.641,-9.424 0,0" />
        </g>
        <g
           style="fill:#3498db;fill-opacity:1"
           transform="translate(75.6128,397.2661)"
           id="g180">
          <path
             id="path182"
             style="fill:#3498db;fill-opacity:1;fill-rule:evenodd;stroke:none"
             d="m 0,0 c -1.115,-4.137 -9.1,-3.669 -12.192,-3.453 3.848,-0.971 7.877,-3.093 8.452,-7.409 1.152,3.92 -2.553,6.15 -5.755,6.977 C -5.934,-4.137 -0.252,-5.575 0,0" />
        </g>
      </g>
    </g>
  </g>
</svg>
