<?xml version="1.0" encoding="UTF-8" standalone="no"?>
<svg
   xmlns:dc="http://purl.org/dc/elements/1.1/"
   xmlns:cc="http://creativecommons.org/ns#"
   xmlns:rdf="http://www.w3.org/1999/02/22-rdf-syntax-ns#"
   xmlns:svg="http://www.w3.org/2000/svg"
   xmlns="http://www.w3.org/2000/svg"
   version="1.1"
   id="svg6112"
   viewBox="0 0 396.74107 113.26356"
   height="31.965494mm"
   width="111.96915mm">
  <defs
     id="defs6114">
    <clipPath
       id="clipPath188-1-6"
       clipPathUnits="userSpaceOnUse">
      <path
         id="path190-5-0"
         d="M 0,550 700,550 700,0 0,0 0,550 Z" />
    </clipPath>
  </defs>
  <metadata
     id="metadata6117">
    <rdf:RDF>
      <cc:Work
         rdf:about="">
        <dc:format>image/svg+xml</dc:format>
        <dc:type
           rdf:resource="http://purl.org/dc/dcmitype/StillImage" />
        <dc:title></dc:title>
      </cc:Work>
    </rdf:RDF>
  </metadata>
  <g
     transform="translate(-176.62947,-475.73041)"
     id="layer1">
    <g
       transform="matrix(2.1097679,0,0,-2.1097679,-73.602141,1193.1307)"
       style="fill:#3498db;fill-opacity:1"
       id="g184-7-0">
      <g
         style="fill:#3498db;fill-opacity:1"
         clip-path="url(#clipPath188-1-6)"
         id="g186-2-3">
        <g
           style="fill:#3498db;fill-opacity:1"
           transform="translate(149.2461,353.8218)"
           id="g192-5-4">
          <path
             id="path194-8-3"
             style="fill:#3498db;fill-opacity:1;fill-rule:evenodd;stroke:none"
             d="m 0,-20.422 c 2.498,3.196 6.932,3.868 10.426,2.901 2.392,-0.672 5.267,-4.649 5.482,-7.792 -4.622,-3.092 -9.19,-6.208 -14,-8.386 -2.311,2.124 -3.843,5.053 -3.79,8.035 0.189,2.069 0.297,3.09 2.285,4.595 1.747,1.29 4.353,0.967 5.186,-0.967 0.806,-1.935 0.376,-3.949 -1.72,-4.325 -1.048,-0.189 -1.396,-0.189 -2.176,0.429 0.107,-0.457 0.322,-0.86 0.699,-1.209 0.429,-0.403 1.128,-0.403 1.665,-0.403 0.458,0 0.94,0.134 1.371,0.295 2.552,1.021 2.848,4.837 0.86,6.53 C 4.595,-19.295 1.8,-19.106 0,-20.422 m 39.234,-2.689 c 0.214,0.376 0.967,1.075 -0.269,2.257 -2.715,1.64 -2.445,-1.666 -3.091,-2.23 -1.371,-1.935 -3.118,0.834 -4.057,1.317 -0.458,-1.747 1.801,-3.654 2.23,-3.305 -2.177,0 -4.568,-1.048 -5.186,-1.99 -0.484,-0.725 -0.323,-1.88 0,-2.068 0.456,-0.269 1.155,0.296 1.557,0 -6.422,-4.139 -12.951,-8.331 -20.61,-7.982 -2.634,0.136 -5.16,1.209 -7.202,2.822 4.515,2.15 8.894,5.053 13.275,7.954 -0.215,-1.505 -1.235,-2.66 -3.521,-2.874 1.479,-1.855 4.031,-0.753 4.866,1.021 0.429,0.94 0.644,2.015 0.589,3.144 6.074,3.95 12.201,7.686 18.73,9.003 12.201,2.471 19.564,-3.415 24.509,-12.658 -1.854,2.901 -4.515,5.885 -7.685,6.718 -5.537,1.451 -10.481,0 -15.291,-2.499 -0.135,-0.028 -0.215,-0.028 -0.215,-0.028 -0.484,-0.214 1.183,1.023 1.371,1.398 m 87.523,2.689 c -1.801,1.316 -4.595,1.127 -6.261,-0.297 -1.989,-1.693 -1.72,-5.509 0.86,-6.53 0.43,-0.161 0.887,-0.295 1.343,-0.295 0.564,0 1.263,0 1.693,0.403 0.349,0.349 0.564,0.752 0.699,1.209 -0.78,-0.618 -1.157,-0.618 -2.204,-0.429 -2.096,0.376 -2.5,2.39 -1.694,4.325 0.807,1.934 3.442,2.257 5.161,0.967 2.016,-1.505 2.097,-2.526 2.284,-4.595 0.052,-2.982 -1.451,-5.911 -3.789,-8.035 -4.784,2.178 -9.379,5.294 -14.001,8.386 0.215,3.143 3.09,7.12 5.508,7.792 3.468,0.967 7.902,0.295 10.401,-2.901 m -39.234,-2.689 c 0.215,-0.375 1.854,-1.612 1.398,-1.398 0,0 -0.081,0 -0.242,0.028 -4.784,2.499 -9.756,3.95 -15.265,2.499 -3.17,-0.833 -5.857,-3.817 -7.711,-6.718 4.944,9.243 12.335,15.129 24.535,12.658 6.503,-1.317 12.629,-5.053 18.702,-9.003 -0.027,-1.129 0.162,-2.204 0.591,-3.144 0.861,-1.774 3.413,-2.876 4.892,-1.021 -2.284,0.214 -3.306,1.369 -3.522,2.874 4.381,-2.901 8.762,-5.804 13.249,-7.954 -2.015,-1.613 -4.568,-2.686 -7.174,-2.822 -7.686,-0.349 -14.215,3.843 -20.611,7.982 0.376,0.296 1.101,-0.269 1.557,0 0.323,0.188 0.458,1.343 -0.026,2.068 -0.592,0.942 -3.01,1.99 -5.16,1.99 0.43,-0.349 2.661,1.558 2.23,3.305 -0.967,-0.483 -2.686,-3.252 -4.084,-1.317 -0.644,0.564 -0.349,3.87 -3.09,2.23 -1.236,-1.182 -0.457,-1.881 -0.269,-2.257 M 63.364,-37.407 c -0.375,-0.806 -0.939,-1.37 -1.424,-1.343 -0.591,0.053 -0.805,1.074 -0.484,2.285 0.296,1.073 0.941,1.933 1.479,2.068 0.027,0.08 0.08,0.188 0.107,0.269 -0.322,0.672 -0.806,1.128 -1.907,1.693 -1.452,0.779 -3.279,0.349 -3.655,-1.21 -0.269,-1.102 -0.162,-2.042 0.537,-2.579 -0.054,0.268 -0.027,0.591 0.108,0.859 0.321,0.726 1.182,1.048 1.88,0.699 1.613,-0.834 0.403,-2.687 -0.805,-2.848 -0.35,-0.053 -0.727,-0.028 -1.075,0.053 -2.042,0.457 -2.58,3.225 -1.397,4.837 1.048,1.451 3.17,1.989 4.809,0.915 0.457,-0.324 0.888,-0.701 1.211,-1.128 -1.399,3.276 -3.36,6.448 -6.263,8.544 -2.391,1.156 -3.466,1.773 -6.288,0.59 -2.338,-0.966 -3.627,-3.787 -2.15,-5.776 1.451,-1.962 3.763,-2.795 5.402,-0.887 0.806,0.94 1.048,1.29 0.86,2.473 0.402,-0.404 0.671,-0.888 0.806,-1.452 0.134,-0.672 -0.269,-1.397 -0.591,-1.934 -0.296,-0.458 -0.699,-0.861 -1.128,-1.183 -2.582,-1.989 -6.612,0.052 -7.095,3.063 -0.457,2.607 1.155,5.617 3.654,6.584 0.941,0.35 1.962,0.457 2.929,0.295 -4.245,1.264 -8.948,0 -13.247,-1.989 0.321,-0.053 0.59,-0.107 0.805,-0.214 0.78,-0.376 1.075,-0.967 0.806,-1.935 -0.94,-2.821 -3.601,-0.108 -3.626,-0.108 -0.86,0.27 -2.527,-0.724 -1.587,-3.627 0,0 -1.988,0.456 -1.424,3.063 0,0 -0.672,-2.607 -1.988,-3.546 0,0 -0.484,-1.021 -2.338,0.052 -0.215,0.136 -0.054,0.458 0.081,0.807 -1.075,-0.725 -2.015,-1.371 -2.741,-1.827 -3.226,-2.016 -4.059,-2.579 -5.025,-3.091 -2.07,-2.203 -1.748,-4.381 -1.532,-5.67 0.349,-2.042 -1.425,-1.907 -1.425,-1.907 0,0 -1.719,-0.216 -1.505,2.606 0.135,1.773 1.21,3.036 2.284,3.897 -2.364,-1.103 -5.455,-1.855 -8.518,-2.07 L 5.938,-39.02 c -2.687,-0.886 -5.078,-2.498 -6.664,-4.89 -3.466,-5.186 -1.773,-13.006 3.171,-16.633 5.187,-3.816 13.167,0.106 14.054,6.153 -0.215,-0.081 -0.484,-0.135 -0.778,-0.135 -1.775,0.027 -1.452,2.419 -1.452,2.419 0,0 0.322,3.815 -4.461,3.843 -4.165,0 -3.978,-4.139 -3.978,-4.139 0,0 0.054,-2.93 2.714,-3.01 1.963,-0.053 1.828,1.989 1.828,1.989 0,0 -0.16,0.859 -0.995,0.941 0.511,-1.156 -0.698,-1.29 -0.698,-1.29 -0.645,0 -1.155,0.457 -1.182,1.021 0,0.564 0.483,1.048 1.128,1.048 l 0.028,0.027 c 1.881,-0.081 2.15,-1.72 2.15,-1.72 0,0 0.214,-2.472 -2.231,-2.391 -3.224,0.106 -3.144,3.493 -3.144,3.493 -0.08,1.021 0.484,5.59 6.288,5.535 6.18,-0.081 5.939,-5.509 5.939,-5.509 0.135,-1.719 -0.216,-3.035 -0.672,-3.976 -0.054,-0.242 -0.134,-0.483 -0.189,-0.699 -0.322,-0.968 -0.805,-1.801 -1.396,-2.527 0.939,0.672 2.069,0.967 3.198,0.994 2.605,0.081 4.595,-2.042 4.783,-4.378 0.187,-2.634 -2.339,-5.348 -4.973,-4.435 -0.456,0.16 -0.885,0.376 -1.236,0.672 -1.235,1.02 -1.289,3.951 1.103,3.763 1.021,-0.082 1.746,-1.076 1.612,-2.097 -0.053,-0.403 -0.242,-0.753 -0.51,-1.022 1.182,0.108 2.284,1.022 2.74,2.419 0.672,2.015 -1.235,4.111 -3.412,3.976 -2.419,-0.187 -3.494,-0.616 -5.106,-1.611 -4.004,-2.821 -10.292,-2.525 -13.758,1.102 0.349,-0.968 0.483,-2.07 0.08,-3.251 -0.887,-2.474 -2.258,-1.64 -2.258,-1.64 0,0 -1.558,0.538 -0.483,2.149 0.644,0.996 1.692,2.662 0.859,5.214 -2.391,4.326 -2.445,10.212 0.403,14.27 1.774,2.472 4.381,4.192 7.31,4.997 0.726,0.189 1.451,0.323 2.203,0.404 -2.418,0.43 -4.621,1.559 -6.369,3.171 -5.884,-2.607 -11.958,-3.815 -18.567,-1.827 -1.612,0.484 -3.144,1.183 -4.596,1.988 -1.747,0.644 -4.837,2.123 -7.337,5.267 -3.036,3.789 -1.531,8.384 0.458,9.755 1.934,1.29 3.789,1.129 4.783,-0.512 0.968,-1.639 0.053,-2.74 -0.43,-3.035 -0.483,-0.323 -1.425,-0.135 -1.746,0.455 -0.35,0.592 -0.404,1.183 0.321,1.694 0.753,0.51 1.694,-0.403 1.64,-0.887 0,0 0.564,0.403 -0.108,1.505 -0.698,1.101 -2.257,1.612 -4.085,0.349 0,0 -2.661,-2.444 0.027,-5.992 2.714,-3.521 5.402,-3.816 5.402,-3.816 0,0 1.425,-0.429 0.725,-1.961 -0.456,-0.996 -1.29,-1.13 -1.961,-0.968 2.257,-1.236 4.568,-2.257 7.095,-2.955 6.421,-1.775 12.226,-0.752 17.734,1.585 -0.939,0.967 -1.719,2.095 -2.283,3.304 -3.52,2.07 -3.01,-0.026 -5.025,0.458 -2.016,0.484 -1.29,2.445 -1.29,2.445 0,0 0.939,2.122 3.493,0.859 0.994,-0.482 1.667,-1.183 2.096,-1.854 -0.644,2.339 -0.564,4.892 0.485,7.364 0.402,0.859 0.886,1.639 1.451,2.338 0.348,0.699 0.456,1.371 0.106,2.58 -0.402,1.504 -2.014,2.525 -3.385,1.773 -0.914,-0.511 -1.532,-1.344 -1.451,-2.177 0.16,0.216 0.376,0.404 0.672,0.511 0.697,0.215 1.504,-0.162 1.693,-0.861 0.457,-1.665 -1.613,-2.042 -2.5,-1.289 -0.268,0.216 -0.484,0.484 -0.645,0.779 -1.021,1.72 0.537,4.032 2.446,4.112 1.638,0.054 3.358,-1.155 3.735,-2.768 0.161,-0.699 0.107,-1.425 -0.134,-2.069 2.713,2.713 6.906,3.574 10.587,2.418 3.977,-1.235 6.288,-4.649 6.745,-7.9 5.966,3.924 12.012,7.605 18.677,8.895 14.43,2.848 22.358,-5.374 26.871,-17.763 0.028,-0.081 0.055,-0.134 0.081,-0.215 0.027,0.081 0.054,0.134 0.082,0.215 4.541,12.389 12.468,20.611 26.925,17.763 6.639,-1.29 12.712,-4.971 18.65,-8.895 0.483,3.251 2.795,6.665 6.745,7.9 3.682,1.156 7.873,0.295 10.588,-2.418 -0.243,0.644 -0.296,1.37 -0.135,2.069 0.404,1.613 2.123,2.822 3.763,2.768 1.88,-0.08 3.466,-2.392 2.444,-4.112 -0.16,-0.295 -0.376,-0.563 -0.644,-0.779 -0.887,-0.753 -2.957,-0.376 -2.499,1.289 0.188,0.699 0.994,1.076 1.693,0.861 0.269,-0.107 0.51,-0.295 0.67,-0.511 0.055,0.833 -0.536,1.666 -1.477,2.177 -1.344,0.752 -2.982,-0.269 -3.386,-1.773 -0.322,-1.209 -0.241,-1.881 0.108,-2.58 0.591,-0.699 1.075,-1.479 1.451,-2.338 1.075,-2.472 1.156,-5.025 0.483,-7.364 0.458,0.671 1.102,1.372 2.124,1.854 2.553,1.263 3.492,-0.859 3.492,-0.859 0,0 0.701,-1.961 -1.315,-2.445 -1.989,-0.484 -1.505,1.612 -4.999,-0.458 -0.591,-1.209 -1.37,-2.337 -2.283,-3.304 5.508,-2.337 11.286,-3.36 17.708,-1.585 2.526,0.698 4.837,1.719 7.094,2.955 -0.671,-0.162 -1.504,-0.028 -1.961,0.968 -0.699,1.532 0.726,1.961 0.726,1.961 0,0 2.686,0.295 5.4,3.816 2.713,3.548 0.028,5.992 0.028,5.992 -1.828,1.263 -3.386,0.752 -4.058,-0.349 -0.699,-1.102 -0.109,-1.505 -0.109,-1.505 -0.08,0.484 0.887,1.397 1.613,0.887 0.753,-0.511 0.673,-1.102 0.35,-1.694 -0.322,-0.59 -1.262,-0.778 -1.746,-0.455 -0.512,0.295 -1.397,1.396 -0.431,3.035 0.967,1.641 2.849,1.802 4.756,0.512 2.017,-1.371 3.494,-5.966 0.485,-9.755 -2.527,-3.144 -5.59,-4.623 -7.337,-5.267 -1.477,-0.805 -3.009,-1.504 -4.621,-1.988 -6.585,-1.988 -12.685,-0.78 -18.543,1.827 -1.774,-1.612 -3.977,-2.741 -6.396,-3.171 0.753,-0.081 1.506,-0.215 2.23,-0.404 2.93,-0.805 5.536,-2.525 7.283,-4.997 2.876,-4.058 2.822,-9.944 0.403,-14.27 -0.832,-2.552 0.243,-4.218 0.887,-5.214 1.049,-1.611 -0.511,-2.149 -0.511,-2.149 0,0 -1.37,-0.834 -2.23,1.64 -0.403,1.181 -0.268,2.283 0.053,3.251 -3.438,-3.627 -9.728,-3.923 -13.73,-1.102 -1.613,0.995 -2.715,1.424 -5.107,1.611 -2.177,0.135 -4.083,-1.961 -3.44,-3.976 0.457,-1.397 1.586,-2.311 2.742,-2.419 -0.269,0.269 -0.431,0.619 -0.484,1.022 -0.134,1.021 0.564,2.015 1.584,2.097 2.419,0.188 2.366,-2.743 1.131,-3.763 -0.377,-0.296 -0.807,-0.512 -1.237,-0.672 -2.633,-0.913 -5.187,1.801 -4.972,4.435 0.161,2.336 2.177,4.459 4.757,4.378 1.155,-0.027 2.285,-0.322 3.197,-0.994 -0.563,0.726 -1.048,1.559 -1.369,2.527 -0.081,0.216 -0.162,0.457 -0.216,0.699 -0.429,0.941 -0.806,2.257 -0.671,3.976 0,0 -0.215,5.428 5.965,5.509 5.778,0.055 6.369,-4.514 6.289,-5.535 0,0 0.08,-3.387 -3.172,-3.493 -2.445,-0.081 -2.229,2.391 -2.229,2.391 0,0 0.268,1.639 2.176,1.72 l 0.026,-0.027 c 0.619,0 1.129,-0.484 1.102,-1.048 0,-0.564 -0.537,-1.021 -1.155,-1.021 0,0 -1.236,0.134 -0.7,1.29 -0.859,-0.082 -0.993,-0.941 -0.993,-0.941 0,0 -0.161,-2.042 1.827,-1.989 2.634,0.08 2.714,3.01 2.714,3.01 0,0 0.162,4.139 -3.976,4.139 -4.811,-0.028 -4.461,-3.843 -4.461,-3.843 0,0 0.296,-2.392 -1.452,-2.419 -0.322,0 -0.564,0.054 -0.78,0.135 0.861,-6.047 8.842,-9.969 14.055,-6.153 4.945,3.627 6.611,11.447 3.144,16.633 -1.559,2.392 -3.951,4.004 -6.664,4.89 l -5.966,0.941 c -3.036,0.215 -6.153,0.967 -8.492,2.07 1.075,-0.861 2.122,-2.124 2.257,-3.897 0.216,-2.822 -1.504,-2.606 -1.504,-2.606 0,0 -1.772,-0.135 -1.424,1.907 0.214,1.289 0.563,3.467 -1.505,5.67 -0.968,0.512 -1.8,1.075 -5.025,3.091 -0.753,0.456 -1.666,1.102 -2.742,1.827 0.135,-0.349 0.269,-0.671 0.081,-0.807 -1.88,-1.073 -2.364,-0.052 -2.364,-0.052 -1.29,0.939 -1.962,3.546 -1.962,3.546 0.537,-2.607 -1.424,-3.063 -1.424,-3.063 0.94,2.903 -0.727,3.897 -1.612,3.627 0,0 -2.688,-2.713 -3.601,0.108 -0.297,0.968 0,1.559 0.807,1.935 0.214,0.107 0.482,0.161 0.778,0.214 -4.273,1.989 -8.976,3.253 -13.248,1.989 0.994,0.162 2.016,0.055 2.956,-0.295 2.499,-0.967 4.085,-3.977 3.655,-6.584 -0.511,-3.011 -4.542,-5.052 -7.122,-3.063 -0.429,0.322 -0.806,0.725 -1.102,1.183 -0.348,0.537 -0.752,1.262 -0.591,1.934 0.107,0.564 0.404,1.048 0.78,1.452 -0.161,-1.183 0.08,-1.533 0.886,-2.473 1.64,-1.908 3.95,-1.075 5.374,0.887 1.479,1.989 0.215,4.81 -2.122,5.776 -2.823,1.183 -3.897,0.566 -6.288,-0.59 -2.929,-2.096 -4.918,-5.268 -6.315,-8.544 0.349,0.427 0.752,0.804 1.237,1.128 1.638,1.074 3.76,0.536 4.808,-0.915 1.183,-1.612 0.646,-4.38 -1.424,-4.837 -0.349,-0.081 -0.697,-0.106 -1.047,-0.053 -1.209,0.161 -2.418,2.014 -0.806,2.848 0.698,0.349 1.558,0.027 1.881,-0.699 0.134,-0.268 0.161,-0.591 0.081,-0.859 0.698,0.537 0.832,1.477 0.563,2.579 -0.403,1.559 -2.203,1.989 -3.654,1.21 -1.101,-0.565 -1.585,-1.021 -1.908,-1.693 0.027,-0.081 0.054,-0.189 0.08,-0.243 0.565,-0.161 1.183,-1.021 1.478,-2.094 0.35,-1.211 0.108,-2.232 -0.482,-2.285 -0.458,-0.027 -1.022,0.537 -1.426,1.343" />
        </g>
      </g>
    </g>
  </g>
</svg>
